<?xml version="1.0" encoding="utf-8"?>
<!-- Generator: Adobe Illustrator 21.0.0, SVG Export Plug-In . SVG Version: 6.00 Build 0)  -->
<svg version="1.1" id="Layer_1" xmlns="http://www.w3.org/2000/svg" xmlns:xlink="http://www.w3.org/1999/xlink" x="0px" y="0px"
	 viewBox="0 0 27.7 24.2" style="enable-background:new 0 0 27.7 24.2;" xml:space="preserve">
<title>Untitled-2</title>
<path d="M27.7,20c0,0-3.6,4.3-14.3,4.2c-3.4,0-6.3,0.1-8.5-0.5c-1.8-0.4-3.5-1.3-4.9-2.6h0c0,0,1.7-6.1,9.2-7.9
	c-1.9-1.3-3.1-3.5-3.1-6c0-4,3.3-7.3,7.3-7.3c2,0,3.8,0.8,5.2,2.1s2.1,3.1,2.1,5.2c0,2.4-1.2,4.5-3,5.9C26.2,14.6,27.7,20,27.7,20z"
	/>
</svg>
