<svg xmlns="http://www.w3.org/2000/svg" viewBox="0 0 296.72 78.92"><defs><style>.cls-1{fill:#191a1a;}</style></defs><g id="Layer_1" data-name="Layer 1"><path class="cls-1" d="M19,20.12h18.1l3.09,11c1,4,1.23,8.81,1.23,19h3.69c-.06-10.19.37-15,1.39-19l3.15-10.95H67V57.5H55.69V50.39c0-8,2.19-17.29,4.91-24.55l-3.79-1.13L47.47,57.5h-9L29.21,24.71l-3.85,1.13c2.78,7.26,4.91,16.6,4.91,24.55V57.5H19Z"/><path class="cls-1" d="M97.07,50.66H84L81.91,57.5H70.11L82.92,20.12h16L111.8,57.5H99.1ZM94.5,42.07l-1-3.26c-1.06-3.63-1-8.33-.85-13H88.85a43.3,43.3,0,0,1-1.18,13l-1,3.26Z"/><path class="cls-1" d="M114.85,20.12h18.84c7.75,0,14.26,4.7,14.26,12.92s-6.51,12.82-14.2,12.82h-7.26V57.5H114.85Zm16.6,17.14c2.94,0,4.7-1.65,4.7-4.16S134.39,29,131.45,29h-5v8.22Z"/><path class="cls-1" d="M173.15,50.66H160.07L158,57.5h-11.8L159,20.12h16L187.89,57.5H175.18Zm-2.56-8.59-1-3.26c-1.07-3.63-1-8.33-.86-13h-3.84a43.3,43.3,0,0,1-1.18,13l-1,3.26Z"/><path class="cls-1" d="M189.06,36.19H211v8.65H189.06Z"/><path class="cls-1" d="M214.37,47.46l11-2.46c.54,3.1,2.19,4.65,4.86,4.65s4.27-1.34,4.27-3.58c0-2.08-1.71-3.68-4.59-3.68h-4.11V34.8h4.06c2.35,0,4.21-1.22,4.21-3.41,0-2-1.6-3.31-3.79-3.31s-3.68,1.33-4.05,3.89L215.6,30.21c.58-6.35,6.3-11,15.05-11,8.39,0,14.21,4.06,14.21,9.4s-4.17,8.06-11.38,8V40.2c8.33-.11,12.39,3.41,12.39,8.22,0,6.19-5.34,10-15.11,10C221.63,58.4,215.7,54.67,214.37,47.46Z"/><path class="cls-1" d="M248.54,47.46l11-2.46c.54,3.1,2.19,4.65,4.86,4.65s4.27-1.34,4.27-3.58c0-2.08-1.71-3.68-4.59-3.68H260V34.8h4.06c2.35,0,4.22-1.22,4.22-3.41,0-2-1.61-3.31-3.8-3.31s-3.68,1.33-4.05,3.89l-10.68-1.76c.59-6.35,6.3-11,15-11,8.39,0,14.21,4.06,14.21,9.4s-4.17,8.06-11.38,8V40.2C276,40.09,280,43.61,280,48.42c0,6.19-5.34,10-15.11,10C255.8,58.4,249.88,54.67,248.54,47.46Z"/></g></svg>