<svg xmlns="http://www.w3.org/2000/svg" viewBox="0 0 120.37 97.64"><defs><style>.cls-1{fill:#191a1a;}.cls-2{fill:#fff;}</style></defs><g id="Layer_1" data-name="Layer 1"><rect class="cls-1" width="120.37" height="97.64"/><path class="cls-2" d="M64.86,76.59c0,.83.37,1.28,1.19,1.28a1.72,1.72,0,0,0,1.17-.45V75.18l-1.12.1A1.15,1.15,0,0,0,64.86,76.59Z"/><path class="cls-2" d="M31.83,76.59c0,.83.34,1.28,1.18,1.28a1.7,1.7,0,0,0,1.17-.45V75.18l-1.13.1A1.13,1.13,0,0,0,31.83,76.59Z"/><path class="cls-2" d="M24.31,57.25c0-2.18-.64-2.89-1.88-2.89a3.13,3.13,0,0,0-1.45.33v5.45a2.22,2.22,0,0,0,1.33.39C23.53,60.53,24.31,59.81,24.31,57.25Z"/><path class="cls-2" d="M46.5,59.22c0,.86.34,1.31,1.17,1.31a1.76,1.76,0,0,0,1.16-.47V57.83l-1.12.08A1.13,1.13,0,0,0,46.5,59.22Z"/><path class="cls-2" d="M31.49,60.53a1.84,1.84,0,0,0,1.15-.47V57.83l-1.12.08c-.9.07-1.24.49-1.24,1.31S30.64,60.53,31.49,60.53Z"/><path class="cls-2" d="M66,60.53a1.86,1.86,0,0,0,1.18-.47V57.83L66,57.91c-.89.07-1.24.49-1.24,1.31S65.14,60.53,66,60.53Z"/><path class="cls-2" d="M96.88,76.59c0,.83.35,1.28,1.2,1.28a1.74,1.74,0,0,0,1.17-.45V75.18l-1.14.1A1.14,1.14,0,0,0,96.88,76.59Z"/><path class="cls-2" d="M81,71.35c-.92,0-1.57.59-1.69,2.28l3.15-.11C82.48,71.91,81.93,71.35,81,71.35Z"/><path class="cls-2" d="M8.78,11.57V87.62H111.39V11.57Zm56.5,45.29,1.88-.36v-.62c0-1.09-.32-1.5-1.86-1.5a16.35,16.35,0,0,0-2.37.17V53a10.79,10.79,0,0,1,3.67-.65c2.27,0,3.31,1,3.31,2.95v4.55c0,.49.27.59.71.59H71v1.25a4,4,0,0,1-1.77.41,1.57,1.57,0,0,1-1.73-1.06h-.09a3.15,3.15,0,0,1-2.5,1.07A2.55,2.55,0,0,1,62,59.59C62,57.81,63.3,57.23,65.28,56.86Zm-8.63-7.79,3.69-.41.27.11v11.6l1.09.26v1.28h-5V60.63l1.13-.26V50.68l-1.2-.28ZM47,54.38a16.65,16.65,0,0,0-2.39.17V53a11,11,0,0,1,3.7-.65c2.26,0,3.27,1,3.27,2.95v4.55c0,.49.3.59.73.59h.34v1.25a4,4,0,0,1-1.77.41,1.57,1.57,0,0,1-1.73-1.06h-.1a3.13,3.13,0,0,1-2.5,1.07,2.55,2.55,0,0,1-2.81-2.55c0-1.78,1.26-2.36,3.24-2.73l1.85-.36v-.62C48.83,54.79,48.52,54.38,47,54.38Zm-9.88-1.56,3.52-.43.25.11v1.35H41a2.9,2.9,0,0,1,2.39-1.46,1.28,1.28,0,0,1,.47.08v2.42a2.83,2.83,0,0,0-.78-.09,4.26,4.26,0,0,0-2,.43v5.14l1.35.26v1.28H37.13V60.63l1.13-.26V54.44l-1.14-.3Zm-6.34,4,1.86-.36v-.62c0-1.09-.32-1.5-1.84-1.5a17.13,17.13,0,0,0-2.4.17V53a11.14,11.14,0,0,1,3.71-.65c2.25,0,3.28,1,3.28,2.95v4.55c0,.49.29.59.71.59h.34v1.25a4,4,0,0,1-1.76.41,1.58,1.58,0,0,1-1.74-1.06h-.1a3.12,3.12,0,0,1-2.48,1.07,2.53,2.53,0,0,1-2.81-2.55C27.55,57.81,28.82,57.23,30.78,56.86Zm-13.67-4,3.51-.43.23.11v.93H21a4.12,4.12,0,0,1,2.75-1.07c1.71,0,3.45,1,3.45,4.51,0,3.73-2,5.27-4.76,5.27A8.13,8.13,0,0,1,21,62v1.91l1.3.25v1.27H17.12V64.18L18.25,64V54.44l-1.14-.3ZM28.27,79.28H25.65l-5.14-9h-.07v7.3l1.34.29v1.41H17.11V77.87l1.32-.32V68.72l-1.32-.33V67h4.67l4.42,7.64h.08v-5.9l-1.35-.35V67h4.53v1.39l-1.19.33Zm9.71-.2a3.94,3.94,0,0,1-1.76.41c-.94,0-1.49-.32-1.73-1.07H34.4a3.11,3.11,0,0,1-2.52,1.1A2.54,2.54,0,0,1,29.09,77c0-1.78,1.27-2.35,3.23-2.74l1.86-.36v-.63c0-1.08-.31-1.47-1.84-1.47a15.13,15.13,0,0,0-2.39.18V70.41a10.64,10.64,0,0,1,3.7-.67c2.25,0,3.29,1,3.29,3v4.53c0,.47.28.62.68.62H38Zm5.91-.15a4,4,0,0,1-2.16.55C40,79.48,39,78.85,39,77V71.6H37.85V70.39l1.35-.47.36-2.17h2.13V70h2.07V71.6H41.69v4.91c0,.87.36,1.19,1.24,1.19a3.42,3.42,0,0,0,1-.12ZM54.74,79l-3.49.42L51,79.34v-1H50.9A4.05,4.05,0,0,1,48,79.48a2.37,2.37,0,0,1-2.71-2.62v-5.1l-1.07-.31V70.13l3.57-.37.25.15v6.16c0,1,.27,1.35,1.28,1.35a3.3,3.3,0,0,0,1.58-.35V71.76l-1-.31V70.13l3.52-.37.26.15v7.54l1.11.28Zm6-1.06v1.3H55.52V78l1.13-.27V71.79l-1.17-.26V70.18L59,69.76l.25.14v1.31h.11a2.9,2.9,0,0,1,2.37-1.45,2.16,2.16,0,0,1,.48.06v2.43a3.81,3.81,0,0,0-.78-.08,4.52,4.52,0,0,0-2,.42v5.12ZM71,79.08a3.88,3.88,0,0,1-1.74.41,1.58,1.58,0,0,1-1.75-1.07h-.09a3.1,3.1,0,0,1-2.52,1.1A2.54,2.54,0,0,1,62.12,77c0-1.78,1.27-2.35,3.26-2.74l1.84-.36v-.63c0-1.08-.31-1.47-1.84-1.47a15.42,15.42,0,0,0-2.39.18V70.41a10.77,10.77,0,0,1,3.69-.67c2.26,0,3.3,1,3.3,3v4.53c0,.47.28.62.69.62H71Zm5.39.17h-5V77.94l1.13-.25V68l-1.21-.3V66.38L75,66l.27.12V77.69l1.1.25Zm5.65-1.63a8.26,8.26,0,0,0,2.71-.44v1.41a5.76,5.76,0,0,1-3.4.93c-3.27,0-4.85-1.87-4.85-5s1.89-4.83,4.57-4.83c2.85,0,4.11,1.58,4.11,5.21H79.33C79.48,76.84,80.44,77.62,82.05,77.62Zm11.4,1.66H85.7V77.83l4.73-6.3v-.08H87.78l-.51,1.63H85.9L86.05,70h7.52v1.47l-4.63,6.25v0h2.71l.6-1.8h1.42Zm9.58-.2a3.81,3.81,0,0,1-1.74.41c-.94,0-1.52-.32-1.75-1.07h-.08a3.13,3.13,0,0,1-2.5,1.1A2.54,2.54,0,0,1,94.16,77c0-1.78,1.24-2.35,3.22-2.74l1.87-.36v-.63c0-1.08-.33-1.47-1.85-1.47a15.23,15.23,0,0,0-2.39.18V70.41a10.66,10.66,0,0,1,3.68-.67c2.27,0,3.3,1,3.3,3v4.53c0,.47.28.62.71.62H103Z"/></g></svg>