<?xml version="1.0" encoding="utf-8"?>
<!-- Generator: Adobe Illustrator 25.0.0, SVG Export Plug-In . SVG Version: 6.00 Build 0)  -->
<svg version="1.1" id="Layer_1" xmlns="http://www.w3.org/2000/svg" xmlns:xlink="http://www.w3.org/1999/xlink" x="0px" y="0px"
	 viewBox="0 0 166.05 166.05" style="enable-background:new 0 0 166.05 166.05;" xml:space="preserve">
<style type="text/css">
	.st0{fill:#5FB9AC;}
	.st1{fill:#F0856B;}
	.st2{fill:#474747;}
	.st3{fill:#3383C2;}
	.st4{fill:#969696;}
	.st5{fill:#EC75A6;}
	.st6{fill-rule:evenodd;clip-rule:evenodd;fill:#353535;}
	.st7{fill:#353535;}
	.st8{fill-rule:evenodd;clip-rule:evenodd;}
	.st9{opacity:0.5;}
	.st10{fill:none;stroke:#FC29E3;stroke-width:0.9497;stroke-miterlimit:10;}
	.st11{fill:#0C69EF;}
	.st12{fill:none;stroke:#0C69EF;stroke-width:8;stroke-miterlimit:10;}
	.st13{fill:none;stroke:#0C69EF;stroke-width:3;stroke-miterlimit:10;}
	.st14{fill:none;stroke:#0C69EF;stroke-width:4;stroke-miterlimit:10;}
	.st15{fill:#231F20;}
	.st16{fill:none;stroke:#0C69EF;stroke-miterlimit:10;}
	.st17{fill:none;}
	.st18{fill:#434343;}
	.st19{opacity:0.28;}
	.st20{fill:none;stroke:#000000;stroke-width:16;stroke-miterlimit:10;}
	.st21{fill:#606060;}
	.st22{fill:#FC29E3;}
	.st23{fill:none;stroke:#FC29E3;stroke-width:20;stroke-linejoin:round;stroke-miterlimit:10;}
	.st24{fill:#FFFFFF;}
	.st25{fill:#959595;}
	.st26{fill:#3384C3;}
	.st27{fill:#63B8AB;}
	.st28{fill:#F1866B;}
	.st29{fill:#F072A6;}
	.st30{fill:#5EBAA8;}
	.st31{fill:#191A1A;}
</style>
<g id="Group_234_2_" transform="translate(1109.596 -1.972)">
	<g id="Group_232_2_" transform="translate(-1025.596 1.972)">
		<path id="Path_158_2_" class="st27" d="M-0.97,13.45c38.41,0.04,69.53,31.17,69.57,69.57c-0.04,38.41-31.17,69.53-69.57,69.57
			c-38.41-0.04-69.53-31.17-69.57-69.57C-70.5,44.61-39.38,13.49-0.97,13.45 M-0.97,0C-46.82,0-84,37.16-84,83.02c0,0,0,0,0,0.01
			c0,45.85,37.17,83.02,83.02,83.02c0,0,0,0,0,0c45.85,0,83.02-37.17,83.02-83.02c0,0,0,0,0,0C82.05,37.17,44.88,0-0.97,0z"/>
	</g>
	<g id="Group_233_2_" transform="translate(-997.456 40.222)">
		<path id="Path_159_2_" class="st27" d="M-51.25,84.71c-0.22,0-0.44-0.01-0.66-0.03c-2-0.2-3.82-1.28-4.93-2.96L-78.99,48.5
			l11.19-7.46l17.59,26.39L10.41,6.81l9.51,9.51L-46.5,82.74C-47.76,84-49.47,84.71-51.25,84.71z"/>
	</g>
</g>
</svg>
