<?xml version="1.0" encoding="utf-8"?>
<!-- Generator: Adobe Illustrator 25.0.0, SVG Export Plug-In . SVG Version: 6.00 Build 0)  -->
<svg version="1.1" id="Layer_1" xmlns="http://www.w3.org/2000/svg" xmlns:xlink="http://www.w3.org/1999/xlink" x="0px" y="0px"
	 viewBox="0 0 76.15 76.15" style="enable-background:new 0 0 76.15 76.15;" xml:space="preserve">
<style type="text/css">
	.st0{fill:#5FB9AC;}
	.st1{fill:#F0856B;}
	.st2{fill:#474747;}
	.st3{fill:#3383C2;}
	.st4{fill:#969696;}
	.st5{fill:#EC75A6;}
	.st6{fill-rule:evenodd;clip-rule:evenodd;fill:#353535;}
	.st7{fill:#353535;}
	.st8{fill-rule:evenodd;clip-rule:evenodd;}
	.st9{opacity:0.5;}
	.st10{fill:none;stroke:#FC29E3;stroke-width:0.9497;stroke-miterlimit:10;}
	.st11{fill:#0C69EF;}
	.st12{fill:none;stroke:#0C69EF;stroke-width:8;stroke-miterlimit:10;}
	.st13{fill:none;stroke:#0C69EF;stroke-width:3;stroke-miterlimit:10;}
	.st14{fill:none;stroke:#0C69EF;stroke-width:4;stroke-miterlimit:10;}
	.st15{fill:#231F20;}
	.st16{fill:none;stroke:#0C69EF;stroke-miterlimit:10;}
	.st17{fill:none;}
	.st18{fill:#434343;}
	.st19{opacity:0.28;}
	.st20{fill:none;stroke:#000000;stroke-width:16;stroke-miterlimit:10;}
	.st21{fill:#606060;}
	.st22{fill:#FC29E3;}
	.st23{fill:none;stroke:#FC29E3;stroke-width:20;stroke-linejoin:round;stroke-miterlimit:10;}
	.st24{fill:#FFFFFF;}
	.st25{fill:#959595;}
	.st26{fill:#3384C3;}
	.st27{fill:#63B8AB;}
	.st28{fill:#F1866B;}
	.st29{fill:#F072A6;}
	.st30{fill:#5EBAA8;}
	.st31{fill:#191A1A;}
</style>
<g>
	<path class="st2" d="M65.1,76.15H11.05C4.95,76.15,0,71.21,0,65.1V11.05C0,4.95,4.95,0,11.05,0H65.1c6.11,0,11.05,4.95,11.05,11.05
		V65.1C76.15,71.21,71.21,76.15,65.1,76.15z"/>
	<g>
		<path class="st31" d="M43.05,39.99v-4.45l-4.48-4.48l0.53-0.53l3.95,3.95v-6.42l-4.48-4.48l0.53-0.53l3.95,3.95v-7.16h1.49v7.16
			l3.95-3.95l0.53,0.53l-4.48,4.48v6.42l3.95-3.95l0.53,0.53l-4.48,4.48v4.45c2.42-0.17,4.8-1.18,6.65-3.03
			c4.08-4.08,4.08-10.7,0-14.79l-7.39-7.39l-7.39,7.39c-4.08,4.08-4.08,10.7,0,14.79C38.25,38.8,40.62,39.81,43.05,39.99z"/>
		<path class="st31" d="M43.52,40.01c-0.16,0-0.32-0.01-0.47-0.02v0.02v2.99h1.49v-2.99h0v-0.02C44.38,40,44.22,40,44.07,40.01
			H43.52z"/>
		<path class="st31" d="M57.9,41.16l-12.5,7.82H34.74v-0.98h10.4l6.12-4.15H39.54l-5.32-2.66c-2.28-1.14-4.8-1.73-7.35-1.73h-3.01
			v14.64h5.43l9.52,3.17c2.27,0.76,4.78,0.29,6.62-1.25l14.61-12.17L57.9,41.16z"/>
		<rect x="16.11" y="38" class="st31" width="6.69" height="17.57"/>
	</g>
</g>
</svg>
