<?xml version="1.0" encoding="utf-8"?>
<!-- Generator: Adobe Illustrator 25.0.0, SVG Export Plug-In . SVG Version: 6.00 Build 0)  -->
<svg version="1.1" id="Layer_1" xmlns="http://www.w3.org/2000/svg" xmlns:xlink="http://www.w3.org/1999/xlink" x="0px" y="0px"
	 viewBox="0 0 76.15 76.15" style="enable-background:new 0 0 76.15 76.15;" xml:space="preserve">
<style type="text/css">
	.st0{fill:#5FB9AC;}
	.st1{fill:#F0856B;}
	.st2{fill:#474747;}
	.st3{fill:#3383C2;}
	.st4{fill:#969696;}
	.st5{fill:#EC75A6;}
	.st6{fill-rule:evenodd;clip-rule:evenodd;fill:#353535;}
	.st7{fill:#353535;}
	.st8{fill-rule:evenodd;clip-rule:evenodd;}
	.st9{opacity:0.5;}
	.st10{fill:none;stroke:#FC29E3;stroke-width:0.9497;stroke-miterlimit:10;}
	.st11{fill:#0C69EF;}
	.st12{fill:none;stroke:#0C69EF;stroke-width:8;stroke-miterlimit:10;}
	.st13{fill:none;stroke:#0C69EF;stroke-width:3;stroke-miterlimit:10;}
	.st14{fill:none;stroke:#0C69EF;stroke-width:4;stroke-miterlimit:10;}
	.st15{fill:#231F20;}
	.st16{fill:none;stroke:#0C69EF;stroke-miterlimit:10;}
	.st17{fill:none;}
	.st18{fill:#434343;}
	.st19{opacity:0.28;}
	.st20{fill:none;stroke:#000000;stroke-width:16;stroke-miterlimit:10;}
	.st21{fill:#606060;}
	.st22{fill:#FC29E3;}
	.st23{fill:none;stroke:#FC29E3;stroke-width:20;stroke-linejoin:round;stroke-miterlimit:10;}
	.st24{fill:#FFFFFF;}
	.st25{fill:#959595;}
	.st26{fill:#3384C3;}
	.st27{fill:#63B8AB;}
	.st28{fill:#F1866B;}
	.st29{fill:#F072A6;}
	.st30{fill:#5EBAA8;}
	.st31{fill:#191A1A;}
</style>
<g>
	<path class="st0" d="M65.1,76.15H11.05C4.95,76.15,0,71.21,0,65.1V11.05C0,4.95,4.95,0,11.05,0H65.1c6.11,0,11.05,4.95,11.05,11.05
		V65.1C76.15,71.21,71.21,76.15,65.1,76.15z"/>
	<g>
		<rect x="16.27" y="58.51" class="st31" width="43.93" height="1.46"/>
		<path class="st31" d="M24.09,32.58v-0.83h-1.82v18.49c-3.88,1.93-6,3.88-6,3.88v1.46h6.34c0-0.68,0.88-1.22,1.96-1.22
			c1.08,0,1.96,0.55,1.96,1.22H60.2v-1.46c0,0-3.43-3.17-9.55-5.41v3.38h-0.74V41.35h5.13c2.83,0,5.13-2.3,5.13-5.13
			c0-2.1-1.27-3.91-3.07-4.7c0.89-2.83,0.22-6.04-2.02-8.28c-3.21-3.21-8.4-3.21-11.61,0c-2.24,2.24-2.91,5.45-2.02,8.28
			c-1.81,0.79-3.07,2.6-3.07,4.7c0,2.83,2.3,5.13,5.13,5.13h5.12v6.69c-2.97-0.89-6.45-1.52-10.39-1.52c-0.62,0-1.24,0.02-1.84,0.05
			v2.47h-0.74v-2.42h0V31.75h-1.82v0.83H24.09z M47.33,35.57h-3.19v-0.64h2.55l-1.91-1.91l0.45-0.45l3.39,3.39v-4.23l-1.92-1.92
			h-2.56v-0.64h1.92l-1.28-1.28l0.45-0.45l3.39,3.39v-3.58h1.28v5.5l3.39-3.39l0.45,0.45l-1.28,1.28h1.92v0.64h-2.56l0,0l-1.92,1.92
			v3.59l3.39-3.39l0.45,0.45l-1.92,1.92h2.56v0.64h-3.2l-1.29,1.29v3.2h-1.28v-4.48L47.33,35.57z M40.22,52.35
			c1.84,0,2.41,1.81,2.41,1.81h-4.81C37.82,54.16,38.38,52.35,40.22,52.35z M25.99,44.42v-10.8h5.64v10.8H25.99z M24.09,49.4V33.62
			h1.48v10.8h-0.75v1.84h8.45v-1.84h-1.21v-10.8h1.79v13.17C30.02,47.25,26.74,48.26,24.09,49.4z"/>
		<rect x="16.27" y="57.41" class="st31" width="12.75" height="0.43"/>
		<rect x="30.91" y="56.43" class="st31" width="10.49" height="0.43"/>
		<rect x="40.28" y="57.47" class="st31" width="18.45" height="0.43"/>
		
			<ellipse transform="matrix(0.9975 -0.0709 0.0709 0.9975 -1.4982 1.592)" class="st31" cx="21.68" cy="21.9" rx="3.88" ry="3.88"/>
		<rect x="21.5" y="16.18" class="st31" width="0.36" height="1.38"/>
		<rect x="21.5" y="26.25" class="st31" width="0.36" height="1.38"/>
		
			<rect x="26.2" y="23.02" transform="matrix(0.3588 -0.9334 0.9334 0.3588 -5.2191 39.8236)" class="st31" width="0.36" height="1.38"/>
		
			<rect x="16.81" y="19.41" transform="matrix(0.359 -0.9333 0.9333 0.359 -7.8719 28.7334)" class="st31" width="0.36" height="1.38"/>
		
			<rect x="24.55" y="18.17" transform="matrix(0.7071 -0.7071 0.7071 0.7071 -5.5799 23.2204)" class="st31" width="1.38" height="0.36"/>
		
			<rect x="17.43" y="25.29" transform="matrix(0.7071 -0.7071 0.7071 0.7071 -12.6971 20.2724)" class="st31" width="1.38" height="0.36"/>
		<rect x="26.02" y="21.73" class="st31" width="1.38" height="0.36"/>
		<rect x="15.96" y="21.73" class="st31" width="1.38" height="0.36"/>
		
			<rect x="25.06" y="24.77" transform="matrix(0.7071 -0.7071 0.7071 0.7071 -10.6125 25.3049)" class="st31" width="0.36" height="1.38"/>
		
			<rect x="17.94" y="17.65" transform="matrix(0.7071 -0.7071 0.7071 0.7071 -7.6645 18.1878)" class="st31" width="0.36" height="1.38"/>
		
			<rect x="23.3" y="25.91" transform="matrix(0.9339 -0.3575 0.3575 0.9339 -7.9598 10.154)" class="st31" width="0.36" height="1.38"/>
		
			<rect x="19.7" y="16.51" transform="matrix(0.9338 -0.3577 0.3577 0.9338 -4.8384 8.2488)" class="st31" width="0.36" height="1.38"/>
		
			<rect x="18.79" y="26.25" transform="matrix(0.4368 -0.8996 0.8996 0.4368 -12.8038 32.4124)" class="st31" width="1.38" height="0.36"/>
		
			<rect x="23.19" y="17.2" transform="matrix(0.4366 -0.8996 0.8996 0.4366 -2.1805 31.2726)" class="st31" width="1.38" height="0.36"/>
		
			<rect x="16.29" y="23.53" transform="matrix(0.9336 -0.3584 0.3584 0.9336 -7.3683 7.6612)" class="st31" width="1.38" height="0.36"/>
		
			<rect x="25.69" y="19.92" transform="matrix(0.9336 -0.3583 0.3583 0.9336 -5.4505 10.7849)" class="st31" width="1.38" height="0.36"/>
	</g>
</g>
</svg>
