<?xml version="1.0" encoding="utf-8"?>
<!-- Generator: Adobe Illustrator 25.0.0, SVG Export Plug-In . SVG Version: 6.00 Build 0)  -->
<svg version="1.1" id="Layer_1" xmlns="http://www.w3.org/2000/svg" xmlns:xlink="http://www.w3.org/1999/xlink" x="0px" y="0px"
	 viewBox="0 0 95.41 95.41" style="enable-background:new 0 0 95.41 95.41;" xml:space="preserve">
<style type="text/css">
	.st0{fill:#5FB9AC;}
	.st1{fill:#F0856B;}
	.st2{fill:#474747;}
	.st3{fill:#3383C2;}
	.st4{fill:#969696;}
	.st5{fill:#EC75A6;}
	.st6{fill-rule:evenodd;clip-rule:evenodd;fill:#353535;}
	.st7{fill:#353535;}
	.st8{fill-rule:evenodd;clip-rule:evenodd;}
	.st9{opacity:0.5;}
	.st10{fill:none;stroke:#FC29E3;stroke-width:0.9497;stroke-miterlimit:10;}
	.st11{fill:#0C69EF;}
	.st12{fill:none;stroke:#0C69EF;stroke-width:8;stroke-miterlimit:10;}
	.st13{fill:none;stroke:#0C69EF;stroke-width:3;stroke-miterlimit:10;}
	.st14{fill:none;stroke:#0C69EF;stroke-width:4;stroke-miterlimit:10;}
	.st15{fill:#231F20;}
	.st16{fill:none;stroke:#0C69EF;stroke-miterlimit:10;}
	.st17{fill:none;}
	.st18{fill:#434343;}
	.st19{opacity:0.28;}
	.st20{fill:none;stroke:#000000;stroke-width:16;stroke-miterlimit:10;}
	.st21{fill:#606060;}
	.st22{fill:#FC29E3;}
	.st23{fill:none;stroke:#FC29E3;stroke-width:20;stroke-linejoin:round;stroke-miterlimit:10;}
	.st24{fill:#FFFFFF;}
	.st25{fill:#959595;}
	.st26{fill:#3384C3;}
	.st27{fill:#63B8AB;}
	.st28{fill:#F1866B;}
	.st29{fill:#F072A6;}
	.st30{fill:#5EBAA8;}
	.st31{fill:#191A1A;}
</style>
<g id="Group_219_7_" transform="translate(-35 -125)">
	<g id="Group_216_7_" transform="translate(1919.447 335.88)">
		<path id="Rectangle_222_7_" class="st26" d="M-1873.39-210.88h73.3c6.1,0,11.05,4.95,11.05,11.05v73.3
			c0,6.1-4.95,11.05-11.05,11.05h-73.3c-6.1,0-11.05-4.95-11.05-11.05v-73.3C-1884.45-205.93-1879.5-210.88-1873.39-210.88z"/>
		<g id="Group_215_9_" transform="translate(-1631.368 263.76)">
			<path id="Path_153_9_" d="M-197.25-450.52v3.49c8.95,2.59,15.11,10.77,15.12,20.09c-0.01,9.31-6.18,17.5-15.12,20.09v3.49
				c10.85-2.68,18.49-12.4,18.5-23.58C-178.76-438.11-186.39-447.84-197.25-450.52z"/>
			<path id="Path_154_9_" d="M-197.25-444.47v3.6c5.63,2.34,9.3,7.84,9.31,13.93c-0.01,6.1-3.68,11.59-9.31,13.94v3.6
				c7.56-2.5,12.68-9.57,12.69-17.54C-184.57-434.91-189.68-441.97-197.25-444.47z"/>
			<path id="Path_155_9_" d="M-197.25-438.21v4c2.23,1.76,3.53,4.44,3.53,7.28c0,2.84-1.3,5.52-3.53,7.28v4
				c4.23-2.17,6.9-6.53,6.9-11.28C-190.35-431.69-193.01-436.04-197.25-438.21z"/>
			<g id="Group_214_9_">
				<rect id="Rectangle_223_9_" x="-232" y="-439.1" width="10.43" height="24.33"/>
				<path id="Path_156_9_" d="M-219.84-439.82v25.76l20.38,13.18V-453L-219.84-439.82z"/>
			</g>
		</g>
	</g>
</g>
</svg>
