<?xml version="1.0" encoding="utf-8"?>
<!-- Generator: Adobe Illustrator 25.0.0, SVG Export Plug-In . SVG Version: 6.00 Build 0)  -->
<svg version="1.1" id="Layer_1" xmlns="http://www.w3.org/2000/svg" xmlns:xlink="http://www.w3.org/1999/xlink" x="0px" y="0px"
	 viewBox="0 0 76.15 76.15" style="enable-background:new 0 0 76.15 76.15;" xml:space="preserve">
<style type="text/css">
	.st0{fill:#5FB9AC;}
	.st1{fill:#F0856B;}
	.st2{fill:#474747;}
	.st3{fill:#3383C2;}
	.st4{fill:#969696;}
	.st5{fill:#EC75A6;}
	.st6{fill-rule:evenodd;clip-rule:evenodd;fill:#353535;}
	.st7{fill:#353535;}
	.st8{fill-rule:evenodd;clip-rule:evenodd;}
	.st9{opacity:0.5;}
	.st10{fill:none;stroke:#FC29E3;stroke-width:0.9497;stroke-miterlimit:10;}
	.st11{fill:#0C69EF;}
	.st12{fill:none;stroke:#0C69EF;stroke-width:8;stroke-miterlimit:10;}
	.st13{fill:none;stroke:#0C69EF;stroke-width:3;stroke-miterlimit:10;}
	.st14{fill:none;stroke:#0C69EF;stroke-width:4;stroke-miterlimit:10;}
	.st15{fill:#231F20;}
	.st16{fill:none;stroke:#0C69EF;stroke-miterlimit:10;}
	.st17{fill:none;}
	.st18{fill:#434343;}
	.st19{opacity:0.28;}
	.st20{fill:none;stroke:#000000;stroke-width:16;stroke-miterlimit:10;}
	.st21{fill:#606060;}
	.st22{fill:#FC29E3;}
	.st23{fill:none;stroke:#FC29E3;stroke-width:20;stroke-linejoin:round;stroke-miterlimit:10;}
	.st24{fill:#FFFFFF;}
	.st25{fill:#959595;}
	.st26{fill:#3384C3;}
	.st27{fill:#63B8AB;}
	.st28{fill:#F1866B;}
	.st29{fill:#F072A6;}
	.st30{fill:#5EBAA8;}
	.st31{fill:#191A1A;}
</style>
<g>
	<path class="st3" d="M65.1,76.15H11.05C4.95,76.15,0,71.21,0,65.1V11.05C0,4.95,4.95,0,11.05,0H65.1c6.11,0,11.05,4.95,11.05,11.05
		V65.1C76.15,71.21,71.21,76.15,65.1,76.15z"/>
	<g>
		<polygon class="st31" points="16.11,54.18 16.11,60.04 30.76,60.04 33.68,57.11 27.83,46.55 		"/>
		<polygon class="st31" points="28.73,45.4 34.42,55.03 37.53,53.29 37.53,16.11 35.8,16.11 34.53,26.36 33.68,26.36 		"/>
		<polygon class="st31" points="60.04,54.18 60.04,60.04 45.4,60.04 42.47,57.11 48.33,46.55 		"/>
		<polygon class="st31" points="47.42,45.4 41.73,55.03 38.62,53.29 38.62,16.11 40.35,16.11 41.63,26.36 42.47,26.36 		"/>
	</g>
</g>
</svg>
