<?xml version="1.0" encoding="utf-8"?>
<!-- Generator: Adobe Illustrator 25.0.0, SVG Export Plug-In . SVG Version: 6.00 Build 0)  -->
<svg version="1.1" id="Layer_1" xmlns="http://www.w3.org/2000/svg" xmlns:xlink="http://www.w3.org/1999/xlink" x="0px" y="0px"
	 viewBox="0 0 76.15 76.15" style="enable-background:new 0 0 76.15 76.15;" xml:space="preserve">
<style type="text/css">
	.st0{fill:#5FB9AC;}
	.st1{fill:#F0856B;}
	.st2{fill:#474747;}
	.st3{fill:#3383C2;}
	.st4{fill:#969696;}
	.st5{fill:#EC75A6;}
	.st6{fill-rule:evenodd;clip-rule:evenodd;fill:#353535;}
	.st7{fill:#353535;}
	.st8{fill-rule:evenodd;clip-rule:evenodd;}
	.st9{opacity:0.5;}
	.st10{fill:none;stroke:#FC29E3;stroke-width:0.9497;stroke-miterlimit:10;}
	.st11{fill:#0C69EF;}
	.st12{fill:none;stroke:#0C69EF;stroke-width:8;stroke-miterlimit:10;}
	.st13{fill:none;stroke:#0C69EF;stroke-width:3;stroke-miterlimit:10;}
	.st14{fill:none;stroke:#0C69EF;stroke-width:4;stroke-miterlimit:10;}
	.st15{fill:#231F20;}
	.st16{fill:none;stroke:#0C69EF;stroke-miterlimit:10;}
	.st17{fill:none;}
	.st18{fill:#434343;}
	.st19{opacity:0.28;}
	.st20{fill:none;stroke:#000000;stroke-width:16;stroke-miterlimit:10;}
	.st21{fill:#606060;}
	.st22{fill:#FC29E3;}
	.st23{fill:none;stroke:#FC29E3;stroke-width:20;stroke-linejoin:round;stroke-miterlimit:10;}
	.st24{fill:#FFFFFF;}
	.st25{fill:#959595;}
	.st26{fill:#3384C3;}
	.st27{fill:#63B8AB;}
	.st28{fill:#F1866B;}
	.st29{fill:#F072A6;}
	.st30{fill:#5EBAA8;}
	.st31{fill:#191A1A;}
</style>
<g>
	<path class="st1" d="M65.1,76.15H11.05C4.95,76.15,0,71.21,0,65.1V11.05C0,4.95,4.95,0,11.05,0H65.1c6.11,0,11.05,4.95,11.05,11.05
		V65.1C76.15,71.21,71.21,76.15,65.1,76.15z"/>
	<g>
		<circle class="st31" cx="23" cy="23.64" r="3.88"/>
		<path class="st31" d="M41.01,51.46l-3.3-18.39l2.8-2.11l4.9-8.79h0.68l0.52-4.15h-0.52l-0.89,2.69h-1.26l-5.86,8.09h-5.44
			c-1.23,0-2.42,0.38-3.43,1.08l-0.9,0.63l-0.32-0.45c-0.62-0.86-1.61-1.37-2.67-1.37H20.8c-1.68,0-3.09,1.27-3.26,2.95L16.11,45.6
			h1.46l0.93-11.7h0.71l-0.93,11.7h0l-1.17,14.64h2.47l3.27-16.76l3.52,16.76h2.93l-1.33-8.79h2.13l-0.48,8.79h2.32l1.51-8.79h0.69
			l1.73,8.79h2.21l-0.64-8.79H41.01z M26.85,42.81v-5.04l0.97-0.95l1.06,1.05L26.85,42.81z"/>
		<path class="st31" d="M37.34,24.08c0-2.14-1.74-3.88-3.88-3.88c-0.43,0-0.85,0.07-1.24,0.2v7.35c0.39,0.13,0.81,0.2,1.24,0.2
			C35.6,27.96,37.34,26.22,37.34,24.08z"/>
		<polygon class="st31" points="45.29,18.66 45.29,16.59 44.22,16.59 44.22,20.2 44.61,20.2 		"/>
		
			<rect x="42.85" y="15.69" transform="matrix(0.4732 -0.8809 0.8809 0.4732 8.2174 46.5426)" class="st31" width="0.36" height="1.42"/>
		
			<rect x="42.41" y="18.11" transform="matrix(0.8808 -0.4736 0.4736 0.8808 -3.5176 22.5984)" class="st31" width="1.42" height="0.36"/>
		<rect x="41.83" y="17.16" class="st31" width="1.66" height="0.36"/>
		<path class="st31" d="M56.38,38.92h-1.46v0.83h-4.39v-0.83h-1.46v0.83h-5.12v-0.83h-1.46v0.83h-3.01l0.62,3.43h2.4v2.43h-1.96
			l0.62,3.43h1.35v5.36h-4.26l0.09,1.17h21.75v-1.17h-3.66v-5.36h3.66V45.6h-3.66v-2.43h3.66v-3.43h-3.66V38.92z M43.93,43.18h5.12
			v2.43h-5.12V43.18z M43.93,49.03h5.12v5.36h-5.12V49.03z M54.92,54.39h-4.39v-5.36h4.39V54.39z M54.92,45.6h-4.39v-2.43h4.39V45.6
			z"/>
		<path class="st31" d="M56.62,30.2c-0.17-0.28-0.45-0.44-0.73-0.48c-0.38-0.06-0.76,0.14-0.98,0.46l-2.34,3.36h-0.65l2.79-4
			l-4.11-6.17c-0.39-0.59-1.25-0.63-1.69-0.07l-4.27,5.34c-0.44-0.48-1.25-0.45-1.64,0.13l-4.34,6.49l0.28,1.57h21.11v-1.17
			L56.62,30.2z"/>
	</g>
</g>
</svg>
