<?xml version="1.0" encoding="utf-8"?>
<!-- Generator: Adobe Illustrator 25.0.0, SVG Export Plug-In . SVG Version: 6.00 Build 0)  -->
<svg version="1.1" id="Layer_1" xmlns="http://www.w3.org/2000/svg" xmlns:xlink="http://www.w3.org/1999/xlink" x="0px" y="0px"
	 viewBox="0 0 95.41 95.41" style="enable-background:new 0 0 95.41 95.41;" xml:space="preserve">
<style type="text/css">
	.st0{fill:#5FB9AC;}
	.st1{fill:#F0856B;}
	.st2{fill:#474747;}
	.st3{fill:#3383C2;}
	.st4{fill:#969696;}
	.st5{fill:#EC75A6;}
	.st6{fill-rule:evenodd;clip-rule:evenodd;fill:#353535;}
	.st7{fill:#353535;}
	.st8{fill-rule:evenodd;clip-rule:evenodd;}
	.st9{opacity:0.5;}
	.st10{fill:none;stroke:#FC29E3;stroke-width:0.9497;stroke-miterlimit:10;}
	.st11{fill:#0C69EF;}
	.st12{fill:none;stroke:#0C69EF;stroke-width:8;stroke-miterlimit:10;}
	.st13{fill:none;stroke:#0C69EF;stroke-width:3;stroke-miterlimit:10;}
	.st14{fill:none;stroke:#0C69EF;stroke-width:4;stroke-miterlimit:10;}
	.st15{fill:#231F20;}
	.st16{fill:none;stroke:#0C69EF;stroke-miterlimit:10;}
	.st17{fill:none;}
	.st18{fill:#434343;}
	.st19{opacity:0.28;}
	.st20{fill:none;stroke:#000000;stroke-width:16;stroke-miterlimit:10;}
	.st21{fill:#606060;}
	.st22{fill:#FC29E3;}
	.st23{fill:none;stroke:#FC29E3;stroke-width:20;stroke-linejoin:round;stroke-miterlimit:10;}
	.st24{fill:#FFFFFF;}
	.st25{fill:#959595;}
	.st26{fill:#3384C3;}
	.st27{fill:#63B8AB;}
	.st28{fill:#F1866B;}
	.st29{fill:#F072A6;}
	.st30{fill:#5EBAA8;}
	.st31{fill:#191A1A;}
</style>
<g id="Group_213_8_" transform="translate(1839.345 210.64)">
	<path id="Rectangle_205_8_" class="st25" d="M-1828.29-210.64h73.3c6.1,0,11.05,4.95,11.05,11.05v73.3
		c0,6.1-4.95,11.05-11.05,11.05h-73.3c-6.1,0-11.05-4.95-11.05-11.05v-73.3C-1839.34-205.69-1834.4-210.64-1828.29-210.64z"/>
	<g id="Group_212_8_" transform="translate(-1803.02 261.687)">
		<path id="Path_151_8_" class="st18" d="M-17-453v56.76h56.76V-453H-17z M36.35-397.85h-50.78l-0.68-3.77l1.79-2.67v-45.03h49.4
			v48.25l0.26,0.42L36.35-397.85z"/>
		<path id="Path_152_8_" class="st18" d="M28.12-413.76c-0.39-0.63-1.04-1.05-1.77-1.15c-0.93-0.11-1.85,0.32-2.37,1.1l-5.64,8.08
			h-1.56l6.71-9.62l-9.89-14.84c-0.77-1.16-2.34-1.47-3.5-0.7c-0.22,0.14-0.41,0.32-0.57,0.52l-10.27,12.83
			c-0.95-1.02-2.55-1.08-3.57-0.13c-0.14,0.13-0.27,0.28-0.38,0.45l-8.65,12.93l-1.79,2.67l0.68,3.77h50.78v-2.81l-0.26-0.42
			L28.12-413.76z"/>
		<circle id="Ellipse_24_8_" class="st18" cx="-1.86" cy="-437.86" r="5.01"/>
		<rect id="Rectangle_206_8_" x="-2.09" y="-445.26" class="st18" width="0.46" height="1.79"/>
		<rect id="Rectangle_207_8_" x="-2.09" y="-432.26" class="st18" width="0.46" height="1.79"/>
		
			<rect id="Rectangle_208_8_" x="3.98" y="-436.42" transform="matrix(0.3589 -0.9334 0.9334 0.3589 409.2114 -275.2971)" class="st18" width="0.46" height="1.79"/>
		
			<rect id="Rectangle_209_8_" x="-8.16" y="-441.09" transform="matrix(0.359 -0.9333 0.9333 0.359 405.7636 -289.5553)" class="st18" width="0.46" height="1.79"/>
		
			<rect id="Rectangle_210_8_" x="1.84" y="-442.69" transform="matrix(0.7071 -0.7071 0.7071 0.7071 313.6689 -127.6606)" class="st18" width="1.79" height="0.46"/>
		
			<rect id="Rectangle_211_8_" x="-7.36" y="-433.5" transform="matrix(0.7071 -0.7071 0.7071 0.7071 304.4729 -131.4697)" class="st18" width="1.79" height="0.46"/>
		<rect id="Rectangle_212_8_" x="3.75" y="-438.09" class="st18" width="1.79" height="0.46"/>
		<rect id="Rectangle_213_8_" x="-9.26" y="-438.09" class="st18" width="1.79" height="0.46"/>
		
			<rect id="Rectangle_214_8_" x="2.5" y="-434.16" transform="matrix(0.7071 -0.7071 0.7071 0.7071 307.1668 -124.9674)" class="st18" width="0.46" height="1.79"/>
		
			<rect id="Rectangle_215_8_" x="-6.69" y="-443.36" transform="matrix(0.7071 -0.7071 0.7071 0.7071 310.9759 -134.1634)" class="st18" width="0.46" height="1.79"/>
		
			<rect id="Rectangle_216_8_" x="0.23" y="-432.69" transform="matrix(0.9338 -0.3579 0.3579 0.9338 154.5719 -28.4375)" class="st18" width="0.46" height="1.79"/>
		
			<rect id="Rectangle_217_8_" x="-4.42" y="-444.83" transform="matrix(0.9338 -0.3577 0.3577 0.9338 158.5045 -30.8653)" class="st18" width="0.46" height="1.79"/>
		
			<rect id="Rectangle_218_8_" x="-5.6" y="-432.24" transform="matrix(0.4368 -0.8996 0.8996 0.4368 385.9759 -247.5479)" class="st18" width="1.79" height="0.46"/>
		
			<rect id="Rectangle_219_8_" x="0.08" y="-443.94" transform="matrix(0.4368 -0.8996 0.8996 0.4368 399.6995 -249.0254)" class="st18" width="1.79" height="0.46"/>
		
			<rect id="Rectangle_220_8_" x="-8.83" y="-435.76" transform="matrix(0.9338 -0.3579 0.3579 0.9338 155.3551 -31.6907)" class="st18" width="1.79" height="0.46"/>
		
			<rect id="Rectangle_221_8_" x="3.31" y="-440.42" transform="matrix(0.9338 -0.3579 0.3579 0.9338 157.8269 -27.6536)" class="st18" width="1.79" height="0.46"/>
	</g>
</g>
</svg>
