<?xml version="1.0" encoding="utf-8"?>
<!-- Generator: Adobe Illustrator 25.0.0, SVG Export Plug-In . SVG Version: 6.00 Build 0)  -->
<svg version="1.1" id="Layer_1" xmlns="http://www.w3.org/2000/svg" xmlns:xlink="http://www.w3.org/1999/xlink" x="0px" y="0px"
	 viewBox="0 0 76.15 76.15" style="enable-background:new 0 0 76.15 76.15;" xml:space="preserve">
<style type="text/css">
	.st0{fill:#5FB9AC;}
	.st1{fill:#F0856B;}
	.st2{fill:#474747;}
	.st3{fill:#3383C2;}
	.st4{fill:#969696;}
	.st5{fill:#EC75A6;}
	.st6{fill-rule:evenodd;clip-rule:evenodd;fill:#353535;}
	.st7{fill:#353535;}
	.st8{fill-rule:evenodd;clip-rule:evenodd;}
	.st9{opacity:0.5;}
	.st10{fill:none;stroke:#FC29E3;stroke-width:0.9497;stroke-miterlimit:10;}
	.st11{fill:#0C69EF;}
	.st12{fill:none;stroke:#0C69EF;stroke-width:8;stroke-miterlimit:10;}
	.st13{fill:none;stroke:#0C69EF;stroke-width:3;stroke-miterlimit:10;}
	.st14{fill:none;stroke:#0C69EF;stroke-width:4;stroke-miterlimit:10;}
	.st15{fill:#231F20;}
	.st16{fill:none;stroke:#0C69EF;stroke-miterlimit:10;}
	.st17{fill:none;}
	.st18{fill:#434343;}
	.st19{opacity:0.28;}
	.st20{fill:none;stroke:#000000;stroke-width:16;stroke-miterlimit:10;}
	.st21{fill:#606060;}
	.st22{fill:#FC29E3;}
	.st23{fill:none;stroke:#FC29E3;stroke-width:20;stroke-linejoin:round;stroke-miterlimit:10;}
	.st24{fill:#FFFFFF;}
	.st25{fill:#959595;}
	.st26{fill:#3384C3;}
	.st27{fill:#63B8AB;}
	.st28{fill:#F1866B;}
	.st29{fill:#F072A6;}
	.st30{fill:#5EBAA8;}
	.st31{fill:#191A1A;}
</style>
<g>
	<path class="st1" d="M65.1,76.15H11.05C4.95,76.15,0,71.21,0,65.1V11.05C0,4.95,4.95,0,11.05,0H65.1c6.11,0,11.05,4.95,11.05,11.05
		V65.1C76.15,71.21,71.21,76.15,65.1,76.15z"/>
	<g>
		<path class="st31" d="M27.75,34.33l-0.54-0.88c-3.24,1.87-4.53,4.21-4.53,4.21l-0.45,0.06c-1.59,0.21-2.85,1.43-3.11,3.01
			l-1.02,6.13h-1.46v8.79h1.46v1.46h4.39c0,0,0-8.79,0-14.64C22.49,36.61,27.75,34.33,27.75,34.33z"/>
		
			<ellipse transform="matrix(0.9871 -0.1602 0.1602 0.9871 -3.8736 5.4147)" class="st31" cx="31.65" cy="26.73" rx="6.95" ry="6.95"/>
		<path class="st31" d="M54.54,23.99c2.61-0.56,4.11-3.08,3.39-5.94l-1.06,0.83l-0.33-0.42l1.23-0.96c0,0,0-0.01,0-0.01l1.76-1.37
			h-3.05c0,0-1.77,0-1.77,1.46c0,0.54,0,1.35,0,2.15c-0.78,0.76-2.43,1.46-5.86,0.35c0,0,0.76,3.08,3.35,3.85l0.41,0.97h-3.76v1.46
			h-7.96v2.93h2.11v10.85l-6.27-4.04c-1.65-0.9-3.5-1.38-5.38-1.38h-0.59c-4.09,0-7.41,3.32-7.41,7.41v17.91h22.58l-8.3-15.98
			l-6.35-3.8l0.71-1.15l12.47,7.33L47,44.59v-15.3h1.85v1.46H59.1V24.9h-4.18L54.54,23.99z M56.17,17.05c0.12,0,0.23,0.1,0.23,0.23
			c0,0.12-0.1,0.23-0.23,0.23s-0.23-0.1-0.23-0.23C55.95,17.15,56.05,17.05,56.17,17.05z M52.84,24.06
			c0.19,0.02,0.38,0.04,0.59,0.04c0.19,0,0.38-0.01,0.57-0.03l0.35,0.83h-1.15L52.84,24.06z"/>
	</g>
</g>
</svg>
