<?xml version="1.0" encoding="UTF-8"?>
<svg width="208px" height="155px" viewBox="0 0 208 155" version="1.1" xmlns="http://www.w3.org/2000/svg" xmlns:xlink="http://www.w3.org/1999/xlink">
    <!-- Generator: Sketch 58 (84663) - https://sketch.com -->
    <title>Group 47</title>
    <desc>Created with Sketch.</desc>
    <g id="Page-1" stroke="none" stroke-width="1" fill="none" fill-rule="evenodd">
        <g id="Group-47" fill="#121211">
            <path d="M113.280283,131.5511 C113.2763,133.2661 113.9903,134.1611 115.6713,134.166113 C116.6643,134.1691 117.5563,133.6701 118.0273,133.2411 L118.0403,128.7941 L115.7473,128.9231 C113.9723,129.0561 113.2853,129.9121 113.280283,131.5511" id="Fill-27"></path>
            <path d="M145.8115,121.092584 C143.9285,121.0876 142.6685,122.2556 142.4245,125.6876 L148.7235,125.4886 C148.7345,122.2386 147.6395,121.0976 145.8115,121.092584" id="Fill-29"></path>
            <path d="M46.165,99.0160061 C47.169,99.018 48.058,98.525 48.528,98.096 L48.542,93.626 L46.252,93.773 C44.461,93.907 43.79,94.768 43.7859738,96.406 C43.781,98.114 44.491,99.011 46.165,99.0160061" id="Fill-31"></path>
            <path d="M46.7860831,131.3641 C46.7821,133.0791 47.4871,133.9741 49.1611,133.979106 C50.1621,133.9811 51.0551,133.4831 51.5171,133.0541 L51.5291,128.6081 L49.2481,128.7361 C47.4621,128.8701 46.7911,129.7261 46.7860831,131.3641" id="Fill-33"></path>
            <path d="M31.7734,92.4105 C31.7864,88.0285 30.4684,86.5585 28.0064,86.5514815 C26.7614,86.5485 25.7244,86.9105 25.0834,87.2265 L25.0524,98.2045 C25.6184,98.5665 26.2654,98.9595 27.7204,98.9635262 C30.1864,98.9705 31.7584,97.5785 31.7734,92.4105" id="Fill-35"></path>
            <path d="M177.724583,131.7323 C177.7206,133.4473 178.4386,134.3423 180.1116,134.347313 C181.1166,134.3503 182.0046,133.8513 182.4676,133.4223 L182.4806,128.9753 L180.1996,129.1043 C178.4126,129.2383 177.7296,130.0933 177.724583,131.7323" id="Fill-37"></path>
            <path d="M115.624,99.2108136 C116.616,99.2138 117.51,98.7208 117.976,98.2918 L117.989,93.8208 L115.712,93.9688 C113.925,94.1028 113.241,94.9638 113.236974,96.6018 C113.232,98.3088 113.939,99.2068 115.624,99.2108136" id="Fill-39"></path>
            <path d="M76.3886736,96.4974 C76.3837,98.2054 77.0897,99.1024 78.7637,99.1074136 C79.7687,99.1104 80.6597,98.6174 81.1317,98.1884 L81.1447,93.7174 L78.8637,93.8654 C77.0767,93.9984 76.3937,94.8594 76.3886736,96.4974" id="Fill-41"></path>
            <path d="M190.0898,136.8036 C189.4828,137.1566 188.0178,137.6206 186.5558,137.6166 C184.6728,137.6106 183.5348,136.9696 183.0688,135.4636 L182.8918,135.4636 C181.9238,136.6336 180.2068,137.6306 177.8258,137.623637 C174.4398,137.6146 172.1928,135.5326 172.200779,132.4706 C172.2108,128.9036 174.7468,127.7336 178.7428,126.9936 L182.4878,126.2496 L182.4908,125.0176 C182.4968,122.8356 181.8608,122.0166 178.7898,122.0086 C177.1558,122.0036 175.1918,122.1436 173.9798,122.3436 L173.9878,119.2796 C175.6588,118.6466 178.4848,117.9756 181.4018,117.98451 C185.9708,117.9976 188.0248,119.9286 188.0118,123.9556 L187.9858,133.0836 C187.9848,134.0376 188.5588,134.3076 189.4168,134.3096 L190.0978,134.3116 L190.0898,136.8036 Z M170.7778,137.1426 L155.1578,137.0986 L155.1658,134.1746 L164.7578,121.5016 L164.7578,121.3616 L159.4138,121.3466 L158.4018,124.6146 L155.6178,124.6056 L155.9628,118.3046 L171.0818,118.3466 L171.0728,121.3096 L161.7008,133.8386 L161.7008,133.9646 L167.1898,133.9796 L168.4098,130.3596 L171.2668,130.3666 L170.7778,137.1426 Z M147.8868,133.7256 C150.4178,133.7326 151.9868,133.2826 153.3058,132.8496 L153.2968,135.7376 C152.0108,136.5496 149.9058,137.5456 146.4538,137.535675 C139.8918,137.5176 136.6908,133.7236 136.70674,127.5546 C136.7248,121.4226 140.5508,117.8696 145.9668,117.884553 C151.6748,117.9006 154.2378,121.0796 154.217916,128.3516 L142.4168,128.3186 C142.6868,132.1326 144.6058,133.7166 147.8868,133.7256 L147.8868,133.7256 Z M136.4828,136.9506 L126.4678,136.9226 L126.4748,134.3246 L128.7528,133.7926 L128.8078,114.3626 L126.3548,113.7806 L126.3618,111.0716 L133.8058,110.2746 L134.3488,110.5206 L134.2818,133.8086 L136.4888,134.3526 L136.4828,136.9506 Z M125.6378,136.6226 C125.0298,136.9756 123.5658,137.4396 122.1038,137.4346 C120.2188,137.4296 119.0698,136.7886 118.6168,135.2826 L118.4508,135.2816 C117.4758,136.4526 115.7638,137.4496 113.3738,137.442637 C109.9828,137.4326 107.7398,135.3516 107.747779,132.2896 C107.7588,128.7216 110.2938,127.5526 114.2898,126.8126 L118.0478,126.0686 L118.0508,124.8366 C118.0578,122.6546 117.4068,121.8346 114.3368,121.8266 C112.7088,121.8216 110.7388,121.9626 109.5238,122.1626 L109.5308,119.0976 C111.2188,118.4656 114.0358,117.7946 116.9658,117.80351 C121.5228,117.8166 123.5828,119.7466 123.5708,123.7736 L123.5458,132.9016 C123.5428,133.8566 124.1108,134.1256 124.9688,134.1286 L125.6448,134.1306 L125.6378,136.6226 Z M104.9958,134.3446 L104.9888,136.9576 L94.4678,136.9286 L94.4758,134.3146 L96.7178,133.7816 L96.7508,121.8806 L94.4318,121.3036 L94.4388,118.5986 L101.5388,117.7866 L102.0408,118.0466 L102.0318,120.7246 L102.2508,120.7246 C103.2478,119.1596 104.8978,117.7966 107.0268,117.8026 C107.3608,117.8036 107.7808,117.8866 107.9998,117.9596 L107.9858,122.8076 C107.5488,122.6946 106.9078,122.6676 106.4058,122.6656 C104.6608,122.6616 103.3878,122.9336 102.2718,123.5116 L102.2428,133.7966 L104.9958,134.3446 Z M92.8688,136.4226 L85.8838,137.2586 L85.3408,137.0036 L85.3468,134.9696 L85.1358,134.9696 C83.8038,136.2846 81.9208,137.2766 79.3168,137.268648 C75.4678,137.2586 73.8938,135.2566 73.9018,131.9796 L73.9308,121.7126 L71.7298,121.1006 L71.7358,118.4256 L78.9418,117.7236 L79.4718,118.0156 L79.4378,130.4256 C79.4318,132.3186 79.9638,133.1726 82.0058,133.1786 C83.4878,133.1816 84.3478,132.8366 85.1438,132.4716 L85.1738,121.7446 L83.0728,121.1316 L83.0798,118.4576 L90.1718,117.7556 L90.7048,118.0476 L90.6628,133.2346 L92.8768,133.8176 L92.8688,136.4226 Z M71.0388,136.1686 C70.1908,136.7126 68.6098,137.2386 66.6858,137.233635 C63.0878,137.2236 61.0938,135.9676 61.1058,132.1956 L61.1358,121.3566 L58.9198,121.3506 L58.9258,118.9256 L61.6468,118.0036 L62.3728,113.6166 L66.6788,113.6276 L66.6658,118.0536 L70.8058,118.0656 L70.7968,121.3836 L66.6568,121.3726 L66.6288,131.2586 C66.6228,133.0426 67.3348,133.6696 69.1208,133.6746 C69.7708,133.6766 70.4838,133.5826 71.0458,133.4296 L71.0388,136.1686 Z M59.1408,136.4356 C58.5308,136.7886 57.0648,137.2516 55.6098,137.2476 C53.7218,137.2426 52.5728,136.6006 52.1148,135.0956 L51.9488,135.0946 C50.9738,136.2656 49.2658,137.2626 46.8708,137.255637 C43.4848,137.2466 41.2418,135.1646 41.2497787,132.1016 C41.2608,128.5346 43.7958,127.3656 47.7918,126.6256 L51.5378,125.8816 L51.5408,124.6486 C51.5468,122.4676 50.9088,121.6486 47.8468,121.6396 C46.2068,121.6356 44.2368,121.7756 43.0368,121.9756 L43.0458,118.9106 C44.7168,118.2786 47.5338,117.6076 50.4588,117.61651 C55.0208,117.6286 57.0848,119.5596 57.0728,123.5866 L57.0478,132.7146 C57.0458,133.6696 57.6198,133.9396 58.4788,133.9416 L59.1468,133.9436 L59.1408,136.4356 Z M39.5968,136.7736 L34.3258,136.7596 L24.0678,118.6446 L23.8898,118.6436 L23.8478,133.2976 L26.5568,133.9156 L26.5478,136.7376 L17.1378,136.7106 L17.1458,133.8886 L19.8208,133.2566 L19.8708,115.4506 L17.1988,114.8096 L17.2068,111.9926 L26.6168,112.0186 L35.4508,127.4166 L35.6288,127.4176 L35.6618,115.5406 L32.9538,114.8536 L32.9618,112.0366 L42.0608,112.0626 L42.0528,114.8796 L39.6558,115.5066 L39.5968,136.7736 Z M17.2868,83.4286 L24.3468,82.6226 L24.8448,82.8706 L24.8398,84.6866 L25.0508,84.6876 C26.2688,83.6586 28.0898,82.5646 30.6298,82.5725564 C34.0818,82.5816 37.5688,84.5866 37.5488856,91.6806 C37.5278,99.1626 33.4628,102.2656 27.9298,102.2496 C26.5398,102.2456 25.8188,102.1266 25.0418,101.9876 L25.0308,105.8396 L27.6378,106.3476 L27.6308,108.9176 L17.2878,108.8886 L17.2968,106.3186 L19.5458,105.8566 L19.6008,86.7086 L17.2798,86.1316 L17.2868,83.4286 Z M44.7908,91.6656 L48.5488,90.9296 L48.5528,89.6836 C48.5588,87.4986 47.9118,86.6846 44.8508,86.6766 C43.2098,86.6716 41.2438,86.8086 40.0278,87.0276 L40.0368,83.9456 C41.7118,83.3126 44.5368,82.6436 47.4538,82.651529 C52.0238,82.6646 54.0888,84.6046 54.0768,88.6346 L54.0518,97.7506 C54.0488,98.7156 54.6108,98.9756 55.4668,98.9776 L56.1468,98.9796 L56.1398,101.4636 C55.5338,101.8276 54.0678,102.2906 52.6168,102.2866 C50.7248,102.2816 49.5888,101.6256 49.1188,100.1256 L48.9408,100.1256 C47.9768,101.3086 46.2608,102.3016 43.8748,102.294637 C40.4868,102.2846 38.2448,100.2046 38.253773,97.1416 C38.2648,93.5676 40.7948,92.4036 44.7908,91.6656 L44.7908,91.6656 Z M57.5508,83.5406 L64.6548,82.7366 L65.1448,82.9836 L65.1368,85.6636 L65.3558,85.6646 C66.3528,84.0896 68.0008,82.7456 70.1398,82.7516 C70.4548,82.7526 70.8858,82.8266 71.0958,82.8936 L71.0818,87.7396 C70.6608,87.6456 70.0128,87.5976 69.5228,87.5966 C67.7648,87.5916 66.4878,87.8636 65.3798,88.4456 L65.3518,98.7476 L68.0878,99.2866 L68.0808,101.9006 L57.5648,101.8716 L57.5708,99.2576 L59.8298,98.7316 L59.8618,86.8216 L57.5438,86.2446 L57.5508,83.5406 Z M77.4488,86.7676 C75.8198,86.7636 73.8558,86.9006 72.6388,87.1186 L72.6488,84.0376 C74.3228,83.4046 77.1358,82.7356 80.0648,82.743529 C84.6228,82.7566 86.6868,84.6966 86.6758,88.7266 L86.6508,97.8426 C86.6478,98.8066 87.2218,99.0676 88.0808,99.0696 L88.7528,99.0716 L88.7458,101.5556 C88.1378,101.9196 86.6818,102.3826 85.2198,102.3786 C83.3228,102.3726 82.1868,101.7176 81.7298,100.2176 L81.5518,100.2176 C80.5758,101.4006 78.8608,102.3936 76.4738,102.386637 C73.0868,102.3766 70.8568,100.2966 70.8647785,97.2336 C70.8748,93.6586 73.4058,92.4946 77.4068,91.7586 L81.1518,91.0216 L81.1548,89.7756 C81.1608,87.5906 80.5158,86.7766 77.4488,86.7676 L77.4488,86.7676 Z M96.8798,76.1236 L104.3358,75.3166 L104.8648,75.5706 L104.8008,98.8586 L107.0188,99.3966 L107.0108,102.0106 L96.9818,101.9826 L96.9878,99.3676 L99.2788,98.8426 L99.3338,79.4086 L96.8708,78.8296 L96.8798,76.1236 Z M114.2548,91.8616 L117.9958,91.1256 L117.9998,89.8786 C118.0068,87.6946 117.3718,86.8806 114.2978,86.8716 C112.6568,86.8666 110.6988,87.0046 109.4878,87.2226 L109.4958,84.1406 C111.1708,83.5086 113.9858,82.8386 116.9178,82.8465291 C121.4838,82.8606 123.5358,84.8006 123.5248,88.8306 L123.4978,97.9466 C123.4958,98.9106 124.0698,99.1706 124.9288,99.1736 L125.5988,99.1756 L125.5908,101.6596 C124.9938,102.0236 123.5308,102.4866 122.0638,102.4816 C120.1728,102.4766 119.0318,101.8216 118.5818,100.3206 L118.3998,100.3206 C117.4368,101.5036 115.7198,102.4966 113.3258,102.490627 C109.9348,102.4806 107.7048,100.3996 107.713773,97.3376 C107.7228,93.7616 110.2548,92.5986 114.2548,91.8616 L114.2548,91.8616 Z M0.7368,0.3826 L0.3078,153.4326 L206.8138,154.0136 L207.2438,0.9636 L0.7368,0.3826 Z" id="Fill-43"></path>
        </g>
    </g>
</svg>